<svg width="164" height="64" viewBox="0 0 164 64" fill="none" xmlns="http://www.w3.org/2000/svg">
<path d="M8.99381 53.2694H17.8795V61.0672C15.7056 63.0124 12.8753 64.0605 9.95934 64.0002C4.08217 64.0002 0.164062 60.1293 0.164062 54.5994C0.164062 49.1394 4.08217 45.1355 9.74944 45.1355C12.4561 45.1037 15.0731 46.1049 17.0679 47.9355L14.6821 50.8754C13.3937 49.6952 11.7061 49.0474 9.95934 49.0624C6.76888 49.0624 4.61392 51.3444 4.61392 54.5714C4.61392 57.7983 6.71291 60.0803 10.1692 60.0803C11.5538 60.0891 12.9158 59.7291 14.1153 59.0373V56.6993H8.99381V53.2694Z" fill="#343A40"/>
<path d="M30.4961 54.5989C30.4961 49.139 34.5961 45.1631 40.1794 45.1631C45.7627 45.1631 49.8418 49.111 49.8418 54.5989C49.8418 60.0869 45.8187 63.9998 40.1794 63.9998C34.5401 63.9998 30.4961 60.0239 30.4961 54.5989ZM45.322 54.5989C45.322 51.456 43.223 49.244 40.1794 49.244C37.1359 49.244 35.0649 51.428 35.0649 54.5989C35.0649 57.7699 37.1639 59.9469 40.1794 59.9469C43.195 59.9469 45.322 57.7139 45.322 54.5989Z" fill="#343A40"/>
<path d="M73.9076 45.4995H78.6374L71.9626 63.6992H67.2329L60.4531 45.4995H65.2318L67.7506 52.6674L69.5977 58.3863L71.4168 52.6674L73.9076 45.4995Z" fill="#343A40"/>
<path d="M125.97 53.2694H134.848V61.0672C132.675 63.0136 129.844 64.0619 126.928 64.0002C121.058 64.0002 117.133 60.1293 117.133 54.5714C117.133 49.1394 121.051 45.1355 126.718 45.1355C129.425 45.1037 132.042 46.1049 134.037 47.9355L131.651 50.8754C130.362 49.691 128.671 49.0405 126.921 49.0554C123.731 49.0554 121.576 51.3374 121.576 54.5643C121.576 57.7913 123.675 60.0733 127.131 60.0733C128.515 60.0814 129.877 59.7215 131.077 59.0303V56.6993H125.963L125.97 53.2694Z" fill="#343A40"/>
<path d="M148.191 56.4893V45.4995H152.69V56.1253C152.69 58.5963 153.831 59.8983 156.014 59.8983C158.197 59.8983 159.337 58.5963 159.337 56.1253V45.4995H163.808V56.4893C163.808 61.1933 160.82 63.9792 156.014 63.9792C151.207 63.9792 148.191 61.1933 148.191 56.4893Z" fill="#343A40"/>
<path d="M99.5087 45.4785H94.73L87.6914 63.6642H92.3652L97.1508 50.0214L101.874 63.6642H106.47L99.5087 45.4785Z" fill="#343A40"/>
<path d="M0.164062 0H36.5465C46.1958 0 55.4498 3.83493 62.2728 10.6611C69.0959 17.4874 72.929 26.7457 72.929 36.3994H36.5465C26.8973 36.3994 17.6433 32.5645 10.8202 25.7383C3.9972 18.9121 0.164063 9.65373 0.164062 0Z" fill="#67509C"/>
<g style="mix-blend-mode:multiply">
<path d="M63.832 0H100.215C109.864 0 119.118 3.83493 125.941 10.6611C132.764 17.4874 136.597 26.7457 136.597 36.3994H63.832V0Z" fill="#009FE3"/>
</g>
<g style="mix-blend-mode:multiply">
<path d="M127.504 0C137.153 0 146.407 3.83493 153.23 10.6611C160.053 17.4874 163.886 26.7457 163.886 36.3994H127.504V0Z" fill="#E94E1B"/>
</g>
<path d="M127.504 12.334V36.3996H136.6C136.613 27.5345 133.377 18.9721 127.504 12.334Z" fill="#67509C"/>
</svg>
